<?xml version="1.0"?>
<svg width="1200pt" height="1200pt" version="1.1" viewBox="0 0 1200 1200" xmlns="http://www.w3.org/2000/svg">
 <path d="m1104.1 711.52c-2.0156-1.7344-4.6406-2.625-7.2656-2.3906-7.7344 0.75-15.234 1.125-22.5 1.125-23.484 0-46.5-3.8906-68.109-11.109v-379.13c0-25.5-20.766-46.266-46.266-46.266h-139.5v-156c0-23.109-18.891-42-42-42h-458.02c-23.109 0-42 18.891-42 42v155.86h-139.36c-25.5 0-46.359 20.766-46.359 46.359v625.87c0 5.1094 4.2656 9.375 9.375 9.375h650.33c58.5 118.73 145.87 167.02 147.14 167.76 1.3594 0.75 2.8594 1.125 4.3594 1.125s3-0.375 4.3594-1.125c2.0156-0.98438 198.89-109.64 198.89-404.26v-0.375c0-2.625-1.125-5.1094-3.1406-6.9844zm-825.66 225.1h-74.109v-534.61c0-1.6406 1.3594-3 3-3h71.109zm0-556.36h-71.109c-12 0-21.75 9.75-21.75 21.75v534.61h-74.109v-616.5c0-15.234 12.375-27.609 27.609-27.609h139.36zm542.02-87.609h139.5c15.141 0 27.516 12.375 27.516 27.516v371.76c-27.984-12.375-53.25-30.75-74.109-54.141v-235.74c0-11.859-9.75-21.609-21.75-21.609h-71.25v-87.75zm0 106.5h71.25c1.6406 0 3 1.3594 3 2.8594v235.64c-20.766 23.484-46.125 41.859-74.25 54.234zm-280.36 537.47h-93.141v-284.39c0-0.89062 0.60938-1.5 1.5-1.5h91.641zm111.84 0h-93.141v-285.89h91.641c0.89062 0 1.5 0.60938 1.5 1.5zm18.75 0v-284.39c0-11.109-9.1406-20.25-20.25-20.25h-202.13c-11.109 0-20.25 9.1406-20.25 20.25v284.39h-131.02l0.046875-546.74v-271.97c0-12.891 10.359-23.25 23.25-23.25h457.87c12.891 0 23.25 10.359 23.25 23.25v581.39c-21.75 7.2656-44.766 11.109-68.25 11.109-7.2656 0-14.766-0.375-22.5-1.125-2.625-0.23438-5.25 0.75-7.2656 2.4844-2.0156 1.7344-3.1406 4.5-3.1406 7.125 0 88.875 18 160.64 42.984 217.87h-72.891zm233.26 167.26c-28.125-17.484-180.52-123.89-184.5-375.24 4.7344 0.23438 9.375 0.375 14.016 0.375 27.609 0 54.609-5.1094 80.016-14.391 0.75-0.23438 1.3594-0.375 2.0156-0.75 33.234-12.516 63.75-32.109 88.5-58.641 24.75 26.391 55.266 46.125 88.5 58.641 0.60938 0.375 1.2656 0.51562 1.875 0.75 25.359 9.2344 52.359 14.391 80.016 14.391 4.5 0 9.2344-0.14062 14.016-0.375-3.8906 251.26-156.24 357.74-184.5 375.24z"></path>
 <path d="m519.89 143.48h-164.48c-5.1094 0-9.375 4.2656-9.375 9.375v79.266c0 5.1094 4.2656 9.375 9.375 9.375h164.48c5.1094 0 9.375-4.2656 9.375-9.375v-79.266c0-5.1094-4.2656-9.375-9.375-9.375zm-9.375 79.266h-145.74v-60.516h145.74z"></path>
 <path d="m579.14 241.5h164.48c5.1094 0 9.375-4.2656 9.375-9.375v-79.266c0-5.1094-4.2656-9.375-9.375-9.375h-164.48c-5.1094 0-9.375 4.2656-9.375 9.375v79.266c0 5.1094 4.2656 9.375 9.375 9.375zm9.375-79.266h145.74v60.516h-145.74z"></path>
 <path d="m519.89 293.11h-164.48c-5.1094 0-9.375 4.2656-9.375 9.375v79.266c0 5.1094 4.2656 9.375 9.375 9.375h164.48c5.1094 0 9.375-4.2656 9.375-9.375v-79.266c0-5.1094-4.2656-9.375-9.375-9.375zm-9.375 79.266h-145.74v-60.516h145.74z"></path>
 <path d="m579.14 391.13h164.48c5.1094 0 9.375-4.2656 9.375-9.375v-79.266c0-5.1094-4.2656-9.375-9.375-9.375h-164.48c-5.1094 0-9.375 4.2656-9.375 9.375v79.266c0 5.1094 4.2656 9.375 9.375 9.375zm9.375-79.266h145.74v60.516h-145.74z"></path>
 <path d="m519.89 442.74h-164.48c-5.1094 0-9.375 4.2656-9.375 9.375v79.266c0 5.1094 4.2656 9.375 9.375 9.375h164.48c5.1094 0 9.375-4.2656 9.375-9.375v-79.266c0-5.1094-4.2656-9.375-9.375-9.375zm-9.375 79.266h-145.74v-60.516h145.74z"></path>
 <path d="m753.14 531.37v-79.266c0-5.1094-4.2656-9.375-9.375-9.375h-164.48c-5.1094 0-9.375 4.2656-9.375 9.375v79.266c0 5.1094 4.2656 9.375 9.375 9.375h164.48c5.1094 0 9.375-4.2656 9.375-9.375zm-18.75-9.375h-145.74v-60.516h145.74z"></path>
 <path d="m1033.9 769.13c-45.375-4.6406-88.359-22.125-124.13-50.484-3.375-2.7656-8.25-2.7656-11.625 0-35.766 28.359-78.609 45.891-124.13 50.484-5.1094 0.51562-8.8594 5.0156-8.3906 10.125 12.984 152.63 88.641 232.74 132.52 266.86 1.7344 1.3594 3.75 2.0156 5.7656 2.0156s4.125-0.60938 5.7656-2.0156c43.875-34.266 119.48-114.38 132.52-267 0.51562-5.1094-3.2344-9.6094-8.3906-10.125zm-129.89 257.76c-41.109-33.891-104.86-106.88-118.73-240.14 43.125-6 83.859-22.734 118.73-48.891 34.875 26.109 75.609 42.891 118.73 48.891-13.875 133.26-77.625 206.26-118.73 240.14z"></path>
</svg>