<?xml version="1.0"?>
<svg width="1200pt" height="1200pt" version="1.1" viewBox="0 0 1200 1200" xmlns="http://www.w3.org/2000/svg">
 <path d="m1060.6 62.16c-3.457-2.1953-7.7891-2.5078-11.496-0.78125l-312.82 144.49h-272.51l-312.84-144.49c-3.7188-1.7148-8.0391-1.4141-11.496 0.78125-3.4453 2.207-5.5312 6.0117-5.5312 10.105v619.68c0 159.28 95.473 300.35 243.21 359.39l218.45 87.527c1.4414 0.57422 2.9531 0.86328 4.4648 0.86328 1.5117 0 3.0234-0.28906 4.4648-0.86328l218.38-87.504c147.78-59.062 243.27-200.15 243.27-359.43l-0.003906-619.66c0-4.0938-2.0898-7.9062-5.5312-10.105zm-18.469 629.79c0 149.4-89.566 281.73-228.19 337.14l-213.93 85.715-213.98-85.738c-138.57-55.379-228.13-187.7-228.13-337.11v-600.93l298.2 137.72c1.5703 0.73047 3.2891 1.1055 5.0273 1.1055h277.79c1.7383 0 3.457-0.37109 5.0273-1.1055l298.19-137.73v600.93z"></path>
 <path d="m212.26 157.27c-3.7188-1.7148-8.0508-1.4141-11.496 0.78125-3.4453 2.207-5.5312 6.0117-5.5312 10.105v523.78c0 134.04 80.352 252.76 204.68 302.46l195.64 78.383c1.4414 0.57422 2.9531 0.86328 4.4648 0.86328s3.0234-0.28906 4.4648-0.86328l195.61-78.383c124.34-49.703 204.7-168.42 204.7-302.46l-0.003906-523.77c0-4.0938-2.0898-7.9062-5.5312-10.105-3.457-2.207-7.7891-2.5078-11.496-0.78125l-238.01 109.95h-299.47l-238.01-109.93zm540.12 133.93c1.7383 0 3.457-0.37109 5.0273-1.1055l223.37-103.18v265.59h-139.86v-98.473c0-6.625-5.3633-12-12-12h-66.145c-5.4102-21.91-25.094-38.27-48.66-38.27-27.719 0-50.258 22.547-50.258 50.27 0 27.719 22.547 50.27 50.258 50.27 23.566 0 43.246-16.355 48.66-38.27h54.145v98.473c0 6.625 5.3633 12 12 12h151.86v67.391h-141.47c-5.4102-21.91-25.094-38.27-48.648-38.27-27.73 0-50.27 22.547-50.27 50.27 0 27.719 22.547 50.27 50.27 50.27 23.555 0 43.234-16.355 48.648-38.27h141.47v51.168h-86.004c-4.9688 0-9.4336 3.0586-11.207 7.7148l-101.17 264.21h-47.125c-5.4102-21.91-25.094-38.27-48.66-38.27-27.73 0-50.27 22.547-50.27 50.27 0 27.719 22.547 50.27 50.27 50.27 23.566 0 43.246-16.355 48.66-38.27h55.379c4.9688 0 9.4336-3.0586 11.207-7.7148l101.17-264.21h77.746v48.875c0 124.16-74.426 234.14-189.61 280.18l-191.16 76.598-191.17-76.598c-115.18-46.031-189.6-156-189.6-280.18v-48.875h77.746l101.18 264.21c1.7773 4.6445 6.2383 7.7148 11.207 7.7148h55.379c5.4102 21.91 25.105 38.27 48.66 38.27 27.719 0 50.27-22.547 50.27-50.27 0-27.719-22.547-50.27-50.27-50.27-23.555 0-43.234 16.355-48.66 38.27h-47.125l-101.18-264.21c-1.7773-4.6445-6.2383-7.7148-11.207-7.7148h-86.004v-51.168h141.47c5.4102 21.91 25.105 38.27 48.66 38.27 27.719 0 50.27-22.547 50.27-50.27 0-27.719-22.547-50.27-50.27-50.27-23.566 0-43.246 16.355-48.66 38.27h-141.47v-67.391h151.86c6.625 0 12-5.375 12-12v-98.473h54.156c5.4102 21.91 25.105 38.27 48.66 38.27 27.719 0 50.27-22.547 50.27-50.27 0-27.719-22.547-50.27-50.27-50.27-23.555 0-43.246 16.355-48.66 38.27h-66.145c-6.625 0-12 5.375-12 12v98.473h-139.86l0.007812-265.57 223.38 103.18c1.5703 0.73047 3.2891 1.1055 5.0273 1.1055h304.75zm-12 62.832c0 14.484-11.785 26.27-26.27 26.27s-26.258-11.785-26.258-26.27c0-14.484 11.773-26.27 26.258-26.27s26.27 11.785 26.27 26.27zm76.535 201.86c0 14.484-11.773 26.27-26.258 26.27s-26.27-11.785-26.27-26.27 11.785-26.27 26.27-26.27 26.258 11.785 26.258 26.27zm-104.03 347.09c0 14.484-11.785 26.27-26.27 26.27-14.484 0-26.27-11.785-26.27-26.27 0-14.484 11.785-26.27 26.27-26.27 14.484 0 26.27 11.785 26.27 26.27zm-225.76 0c0-14.484 11.785-26.27 26.27-26.27 14.484 0 26.27 11.785 26.27 26.27 0 14.484-11.785 26.27-26.27 26.27-14.484 0-26.27-11.785-26.27-26.27zm-104.04-347.09c0-14.484 11.785-26.27 26.27-26.27s26.27 11.785 26.27 26.27-11.785 26.27-26.27 26.27-26.27-11.785-26.27-26.27zm76.535-201.86c0-14.484 11.785-26.27 26.27-26.27s26.27 11.785 26.27 26.27c0 14.484-11.785 26.27-26.27 26.27s-26.27-11.785-26.27-26.27z"></path>
 <path d="m518.51 619.07h-20.16c-19.43 0-35.23 15.805-35.23 35.242v133.22c0 19.43 15.805 35.242 35.23 35.242h203.29c19.43 0 35.242-15.805 35.242-35.242v-133.22c0-19.43-15.805-35.242-35.242-35.242h-20.16v-122.09c0-44.93-36.562-81.492-81.492-81.492-44.93 0-81.492 36.551-81.492 81.492v122.09zm194.38 35.242v133.22c0 6.2031-5.0391 11.242-11.242 11.242h-203.29c-6.1914 0-11.23-5.0391-11.23-11.242v-133.22c0-6.2031 5.0391-11.242 11.23-11.242h203.29c6.2031 0 11.242 5.0391 11.242 11.242zm-170.38-157.32c0-31.703 25.789-57.492 57.492-57.492s57.492 25.789 57.492 57.492v122.09h-114.98z"></path>
 <path d="m600 681.02c-21.996 0-39.898 17.902-39.898 39.898s17.902 39.887 39.898 39.887 39.887-17.891 39.887-39.887-17.891-39.898-39.887-39.898zm0 55.789c-8.7617 0-15.898-7.1289-15.898-15.887 0-8.7617 7.1289-15.898 15.898-15.898 8.7734 0 15.887 7.1289 15.887 15.898 0 8.7734-7.1289 15.887-15.887 15.887z"></path>
</svg>