<?xml version="1.0"?>
<svg width="1200pt" height="1200pt" version="1.1" viewBox="0 0 1200 1200" xmlns="http://www.w3.org/2000/svg">
 <path d="m1080 591.56c-8.4375-11.25-208.13-266.26-463.13-276.56-5.625 0-11.25-0.9375-16.875-0.9375s-11.25 0-16.875 0.9375c-255 10.312-454.69 265.31-463.13 276.56-3.75 4.6875-3.75 12.188 0 16.875 8.4375 11.25 208.13 266.26 463.13 276.56 5.625 0 11.25 0.9375 16.875 0.9375s11.25 0 16.875-0.9375c255-11.25 454.69-265.31 463.13-276.56 3.75-4.6875 3.75-12.188 0-16.875zm-465.94-249.37c107.81 5.625 198.74 78.75 230.63 178.13h-107.81l-21.562-22.5c3.75-6.5625 5.625-14.062 5.625-21.562 0-25.312-20.625-45.938-45.938-45.938s-45.938 20.625-45.938 45.938 20.625 45.938 45.938 45.938c6.5625 0 13.125-1.875 19.688-4.6875l25.312 27.188c2.8125 2.8125 6.5625 4.6875 10.312 4.6875h120.94c3.75 16.875 5.625 33.75 5.625 51.562s-1.875 34.688-5.625 51.562h-120c-3.75 0-7.5 1.875-10.312 4.6875l-25.312 27.188c-5.625-2.8125-12.188-4.6875-19.688-4.6875-25.312 0-45.938 20.625-45.938 45.938s20.625 45.938 45.938 45.938 45.938-20.625 45.938-45.938c0-7.5-1.875-15-5.625-21.562l21.562-22.5h107.81c-31.875 99.375-122.81 171.56-230.63 178.13h-28.125c-135.94-7.5-243.74-120-243.74-257.81 0-22.5 2.8125-45 8.4375-65.625h116.25l28.125 31.875c-6.5625 9.375-10.312 20.625-10.312 33.75 0 31.875 26.25 59.062 59.062 59.062s59.062-26.25 59.062-59.062-26.25-59.062-59.062-59.062c-9.375 0-18.75 2.8125-27.188 6.5625l-32.812-37.5c-2.8125-2.8125-6.5625-4.6875-10.312-4.6875h-114.38c35.625-91.875 122.81-157.5 225.94-164.06h14.062c4.6875-0.9375 9.375-0.9375 14.062-0.9375zm61.875 150.94c-9.375 0-17.812-7.5-17.812-17.812s7.5-17.812 17.812-17.812c9.375 0 17.812 7.5 17.812 17.812s-8.4375 17.812-17.812 17.812zm17.812 231.56c0 9.375-7.5 17.812-17.812 17.812-9.375 0-17.812-7.5-17.812-17.812s7.5-17.812 17.812-17.812c9.375 0 17.812 7.5 17.812 17.812zm-150-154.69c16.875 0 30.938 14.062 30.938 30.938s-14.062 30.938-30.938 30.938-30.938-14.062-30.938-30.938 14.062-30.938 30.938-30.938zm-394.69 30c26.25-30.938 122.81-140.63 253.13-206.26-34.688 32.812-60.938 74.062-75 120.94 0 0.9375-0.9375 1.875-0.9375 3.75-7.5 25.312-12.188 53.438-12.188 81.562 0 80.625 33.75 153.74 88.125 206.26-130.31-65.625-226.87-175.31-253.13-206.26zm648.74 206.26c38.438-36.562 66.562-83.438 79.688-136.87v-1.875c5.625-21.562 8.4375-44.062 8.4375-67.5s-2.8125-45.938-8.4375-67.5v-1.875c-13.125-52.5-41.25-99.375-79.688-136.87 130.31 65.625 226.87 174.37 253.13 206.26-26.25 30.938-122.81 140.63-253.13 206.26z"></path>
</svg>